<mxfile host="Electron" agent="Mozilla/5.0 (Windows NT 10.0; Win64; x64) AppleWebKit/537.36 (KHTML, like Gecko) draw.io/28.2.8 Chrome/140.0.7339.240 Electron/38.4.0 Safari/537.36" version="28.2.8">
  <diagram name="Seite-1" id="vo3xN_PYVV55TolvT_0G">
    <mxGraphModel dx="2197" dy="1321" grid="1" gridSize="10" guides="1" tooltips="1" connect="1" arrows="1" fold="1" page="1" pageScale="1" pageWidth="827" pageHeight="1169" math="0" shadow="0">
      <root>
        <mxCell id="0" />
        <mxCell id="1" parent="0" />
        <mxCell id="wPd_HhZtp6EpPvN9HsTd-2" value="Actor" style="shape=umlActor;verticalLabelPosition=bottom;verticalAlign=top;html=1;" parent="1" vertex="1">
          <mxGeometry x="40" y="480" width="40" height="80" as="geometry" />
        </mxCell>
        <mxCell id="wPd_HhZtp6EpPvN9HsTd-3" value="Use Case" style="ellipse;whiteSpace=wrap;html=1;" parent="1" vertex="1">
          <mxGeometry x="-200" y="410" width="160" height="80" as="geometry" />
        </mxCell>
        <mxCell id="wPd_HhZtp6EpPvN9HsTd-17" value="Kursmanagement" style="swimlane;whiteSpace=wrap;html=1;" parent="1" vertex="1">
          <mxGeometry x="200" y="660" width="600" height="500" as="geometry" />
        </mxCell>
        <mxCell id="wPd_HhZtp6EpPvN9HsTd-18" value="f체r&lt;div&gt;Kurs&lt;/div&gt;&lt;div&gt;abmelden&lt;/div&gt;" style="ellipse;whiteSpace=wrap;html=1;fillColor=#d5e8d4;strokeColor=#82b366;" parent="wPd_HhZtp6EpPvN9HsTd-17" vertex="1">
          <mxGeometry x="40" y="60" width="160" height="80" as="geometry" />
        </mxCell>
        <mxCell id="wPd_HhZtp6EpPvN9HsTd-19" value="f체r&lt;div&gt;Kurs&lt;/div&gt;&lt;div&gt;anmelden&lt;/div&gt;" style="ellipse;whiteSpace=wrap;html=1;fillColor=#d5e8d4;strokeColor=#82b366;" parent="wPd_HhZtp6EpPvN9HsTd-17" vertex="1">
          <mxGeometry x="40" y="140" width="160" height="80" as="geometry" />
        </mxCell>
        <mxCell id="wPd_HhZtp6EpPvN9HsTd-20" value="Kurs&lt;div&gt;anlegen&lt;/div&gt;" style="ellipse;whiteSpace=wrap;html=1;fillColor=#d5e8d4;strokeColor=#82b366;" parent="wPd_HhZtp6EpPvN9HsTd-17" vertex="1">
          <mxGeometry x="400" y="60" width="160" height="80" as="geometry" />
        </mxCell>
        <mxCell id="wPd_HhZtp6EpPvN9HsTd-21" value="Trainer&lt;div&gt;anlegen&lt;/div&gt;" style="ellipse;whiteSpace=wrap;html=1;fillColor=#d5e8d4;strokeColor=#82b366;" parent="wPd_HhZtp6EpPvN9HsTd-17" vertex="1">
          <mxGeometry x="400" y="380" width="160" height="80" as="geometry" />
        </mxCell>
        <mxCell id="wPd_HhZtp6EpPvN9HsTd-36" value="Kurstermin&lt;div&gt;anlegen&lt;/div&gt;" style="ellipse;whiteSpace=wrap;html=1;fillColor=#d5e8d4;strokeColor=#82b366;" parent="wPd_HhZtp6EpPvN9HsTd-17" vertex="1">
          <mxGeometry x="400" y="220" width="160" height="80" as="geometry" />
        </mxCell>
        <mxCell id="wPd_HhZtp6EpPvN9HsTd-22" value="Verkaufsmanagement" style="swimlane;whiteSpace=wrap;html=1;" parent="1" vertex="1">
          <mxGeometry x="-400" y="650" width="560" height="500" as="geometry" />
        </mxCell>
        <mxCell id="wPd_HhZtp6EpPvN9HsTd-23" value="Bestellung&lt;div&gt;aufnehmen&lt;/div&gt;" style="ellipse;whiteSpace=wrap;html=1;fillColor=#d5e8d4;strokeColor=#82b366;" parent="wPd_HhZtp6EpPvN9HsTd-22" vertex="1">
          <mxGeometry x="40" y="70" width="160" height="80" as="geometry" />
        </mxCell>
        <mxCell id="wPd_HhZtp6EpPvN9HsTd-24" value="Artikel&lt;div&gt;anlegen&lt;/div&gt;" style="ellipse;whiteSpace=wrap;html=1;fillColor=#d5e8d4;strokeColor=#82b366;" parent="wPd_HhZtp6EpPvN9HsTd-22" vertex="1">
          <mxGeometry x="360" y="70" width="160" height="80" as="geometry" />
        </mxCell>
        <mxCell id="wPd_HhZtp6EpPvN9HsTd-25" value="Vertragsmanagement" style="swimlane;whiteSpace=wrap;html=1;" parent="1" vertex="1">
          <mxGeometry x="-760" y="20" width="560" height="540" as="geometry" />
        </mxCell>
        <mxCell id="wPd_HhZtp6EpPvN9HsTd-26" value="Mitglied&lt;div&gt;+&lt;/div&gt;&lt;div&gt;Vertrag&lt;/div&gt;&lt;div&gt;anlegen&lt;/div&gt;" style="ellipse;whiteSpace=wrap;html=1;fillColor=#d5e8d4;strokeColor=#82b366;" parent="wPd_HhZtp6EpPvN9HsTd-25" vertex="1">
          <mxGeometry x="40" y="140" width="160" height="80" as="geometry" />
        </mxCell>
        <mxCell id="wPd_HhZtp6EpPvN9HsTd-27" value="Interessenten&lt;div&gt;anlegen&lt;/div&gt;" style="ellipse;whiteSpace=wrap;html=1;fillColor=#d5e8d4;strokeColor=#82b366;" parent="wPd_HhZtp6EpPvN9HsTd-25" vertex="1">
          <mxGeometry x="40" y="60" width="160" height="80" as="geometry" />
        </mxCell>
        <mxCell id="wPd_HhZtp6EpPvN9HsTd-28" value="Vertrag(sart)&lt;div&gt;anlegen&lt;/div&gt;" style="ellipse;whiteSpace=wrap;html=1;fillColor=#d5e8d4;strokeColor=#82b366;" parent="wPd_HhZtp6EpPvN9HsTd-25" vertex="1">
          <mxGeometry x="360" y="60" width="160" height="80" as="geometry" />
        </mxCell>
        <mxCell id="wPd_HhZtp6EpPvN9HsTd-29" value="Intervall&lt;div&gt;anlegen&lt;/div&gt;" style="ellipse;whiteSpace=wrap;html=1;fillColor=#d5e8d4;strokeColor=#82b366;" parent="wPd_HhZtp6EpPvN9HsTd-25" vertex="1">
          <mxGeometry x="360" y="140" width="160" height="80" as="geometry" />
        </mxCell>
        <mxCell id="wPd_HhZtp6EpPvN9HsTd-30" value="Vertrag&lt;div&gt;verl채ngern&lt;/div&gt;" style="ellipse;whiteSpace=wrap;html=1;fillColor=#d5e8d4;strokeColor=#82b366;" parent="wPd_HhZtp6EpPvN9HsTd-25" vertex="1">
          <mxGeometry x="40" y="220" width="160" height="80" as="geometry" />
        </mxCell>
        <mxCell id="wPd_HhZtp6EpPvN9HsTd-31" value="Zahlung(smethode)&lt;div&gt;anlegen&lt;/div&gt;" style="ellipse;whiteSpace=wrap;html=1;fillColor=#d5e8d4;strokeColor=#82b366;" parent="wPd_HhZtp6EpPvN9HsTd-25" vertex="1">
          <mxGeometry x="360" y="420" width="160" height="80" as="geometry" />
        </mxCell>
        <mxCell id="wPd_HhZtp6EpPvN9HsTd-33" value="Zahlungsdaten&lt;div&gt;채ndern&lt;/div&gt;" style="ellipse;whiteSpace=wrap;html=1;fillColor=#d5e8d4;strokeColor=#82b366;" parent="wPd_HhZtp6EpPvN9HsTd-25" vertex="1">
          <mxGeometry x="360" y="260" width="160" height="80" as="geometry" />
        </mxCell>
        <mxCell id="wPd_HhZtp6EpPvN9HsTd-34" value="Ort&lt;div&gt;anlegen&lt;/div&gt;" style="ellipse;whiteSpace=wrap;html=1;fillColor=#d5e8d4;strokeColor=#82b366;" parent="wPd_HhZtp6EpPvN9HsTd-25" vertex="1">
          <mxGeometry x="220" y="300" width="160" height="80" as="geometry" />
        </mxCell>
      </root>
    </mxGraphModel>
  </diagram>
</mxfile>
